CATALOG 0000000000000
FILE "Allie's Playhouse (1993)(Opcode Interactive)[PC-Mac] (Track 01 of 44).bin" BINARY
  TRACK 01 MODE1/2352
    INDEX 01 00:00:00
FILE "Allie's Playhouse (1993)(Opcode Interactive)[PC-Mac] (Track 02 of 44).bin" BINARY
  TRACK 02 AUDIO
    INDEX 00 00:00:00
    INDEX 01 00:02:00
FILE "Allie's Playhouse (1993)(Opcode Interactive)[PC-Mac] (Track 03 of 44).bin" BINARY
  TRACK 03 AUDIO
    INDEX 01 00:00:00
FILE "Allie's Playhouse (1993)(Opcode Interactive)[PC-Mac] (Track 04 of 44).bin" BINARY
  TRACK 04 AUDIO
    INDEX 01 00:00:00
FILE "Allie's Playhouse (1993)(Opcode Interactive)[PC-Mac] (Track 05 of 44).bin" BINARY
  TRACK 05 AUDIO
    INDEX 01 00:00:00
FILE "Allie's Playhouse (1993)(Opcode Interactive)[PC-Mac] (Track 06 of 44).bin" BINARY
  TRACK 06 AUDIO
    INDEX 01 00:00:00
FILE "Allie's Playhouse (1993)(Opcode Interactive)[PC-Mac] (Track 07 of 44).bin" BINARY
  TRACK 07 AUDIO
    INDEX 01 00:00:00
FILE "Allie's Playhouse (1993)(Opcode Interactive)[PC-Mac] (Track 08 of 44).bin" BINARY
  TRACK 08 AUDIO
    INDEX 01 00:00:00
FILE "Allie's Playhouse (1993)(Opcode Interactive)[PC-Mac] (Track 09 of 44).bin" BINARY
  TRACK 09 AUDIO
    INDEX 01 00:00:00
FILE "Allie's Playhouse (1993)(Opcode Interactive)[PC-Mac] (Track 10 of 44).bin" BINARY
  TRACK 10 AUDIO
    INDEX 01 00:00:00
FILE "Allie's Playhouse (1993)(Opcode Interactive)[PC-Mac] (Track 11 of 44).bin" BINARY
  TRACK 11 AUDIO
    INDEX 01 00:00:00
FILE "Allie's Playhouse (1993)(Opcode Interactive)[PC-Mac] (Track 12 of 44).bin" BINARY
  TRACK 12 AUDIO
    INDEX 01 00:00:00
FILE "Allie's Playhouse (1993)(Opcode Interactive)[PC-Mac] (Track 13 of 44).bin" BINARY
  TRACK 13 AUDIO
    INDEX 01 00:00:00
FILE "Allie's Playhouse (1993)(Opcode Interactive)[PC-Mac] (Track 14 of 44).bin" BINARY
  TRACK 14 AUDIO
    INDEX 01 00:00:00
FILE "Allie's Playhouse (1993)(Opcode Interactive)[PC-Mac] (Track 15 of 44).bin" BINARY
  TRACK 15 AUDIO
    INDEX 01 00:00:00
FILE "Allie's Playhouse (1993)(Opcode Interactive)[PC-Mac] (Track 16 of 44).bin" BINARY
  TRACK 16 AUDIO
    INDEX 01 00:00:00
FILE "Allie's Playhouse (1993)(Opcode Interactive)[PC-Mac] (Track 17 of 44).bin" BINARY
  TRACK 17 AUDIO
    INDEX 01 00:00:00
FILE "Allie's Playhouse (1993)(Opcode Interactive)[PC-Mac] (Track 18 of 44).bin" BINARY
  TRACK 18 AUDIO
    INDEX 01 00:00:00
FILE "Allie's Playhouse (1993)(Opcode Interactive)[PC-Mac] (Track 19 of 44).bin" BINARY
  TRACK 19 AUDIO
    INDEX 01 00:00:00
FILE "Allie's Playhouse (1993)(Opcode Interactive)[PC-Mac] (Track 20 of 44).bin" BINARY
  TRACK 20 AUDIO
    INDEX 01 00:00:00
FILE "Allie's Playhouse (1993)(Opcode Interactive)[PC-Mac] (Track 21 of 44).bin" BINARY
  TRACK 21 AUDIO
    INDEX 01 00:00:00
FILE "Allie's Playhouse (1993)(Opcode Interactive)[PC-Mac] (Track 22 of 44).bin" BINARY
  TRACK 22 AUDIO
    INDEX 01 00:00:00
FILE "Allie's Playhouse (1993)(Opcode Interactive)[PC-Mac] (Track 23 of 44).bin" BINARY
  TRACK 23 AUDIO
    INDEX 01 00:00:00
FILE "Allie's Playhouse (1993)(Opcode Interactive)[PC-Mac] (Track 24 of 44).bin" BINARY
  TRACK 24 AUDIO
    INDEX 01 00:00:00
FILE "Allie's Playhouse (1993)(Opcode Interactive)[PC-Mac] (Track 25 of 44).bin" BINARY
  TRACK 25 AUDIO
    INDEX 01 00:00:00
FILE "Allie's Playhouse (1993)(Opcode Interactive)[PC-Mac] (Track 26 of 44).bin" BINARY
  TRACK 26 AUDIO
    INDEX 01 00:00:00
FILE "Allie's Playhouse (1993)(Opcode Interactive)[PC-Mac] (Track 27 of 44).bin" BINARY
  TRACK 27 AUDIO
    INDEX 01 00:00:00
FILE "Allie's Playhouse (1993)(Opcode Interactive)[PC-Mac] (Track 28 of 44).bin" BINARY
  TRACK 28 AUDIO
    INDEX 01 00:00:00
FILE "Allie's Playhouse (1993)(Opcode Interactive)[PC-Mac] (Track 29 of 44).bin" BINARY
  TRACK 29 AUDIO
    INDEX 01 00:00:00
FILE "Allie's Playhouse (1993)(Opcode Interactive)[PC-Mac] (Track 30 of 44).bin" BINARY
  TRACK 30 AUDIO
    INDEX 01 00:00:00
FILE "Allie's Playhouse (1993)(Opcode Interactive)[PC-Mac] (Track 31 of 44).bin" BINARY
  TRACK 31 AUDIO
    INDEX 01 00:00:00
FILE "Allie's Playhouse (1993)(Opcode Interactive)[PC-Mac] (Track 32 of 44).bin" BINARY
  TRACK 32 AUDIO
    INDEX 01 00:00:00
FILE "Allie's Playhouse (1993)(Opcode Interactive)[PC-Mac] (Track 33 of 44).bin" BINARY
  TRACK 33 AUDIO
    INDEX 01 00:00:00
FILE "Allie's Playhouse (1993)(Opcode Interactive)[PC-Mac] (Track 34 of 44).bin" BINARY
  TRACK 34 AUDIO
    INDEX 01 00:00:00
FILE "Allie's Playhouse (1993)(Opcode Interactive)[PC-Mac] (Track 35 of 44).bin" BINARY
  TRACK 35 AUDIO
    INDEX 01 00:00:00
FILE "Allie's Playhouse (1993)(Opcode Interactive)[PC-Mac] (Track 36 of 44).bin" BINARY
  TRACK 36 AUDIO
    INDEX 01 00:00:00
FILE "Allie's Playhouse (1993)(Opcode Interactive)[PC-Mac] (Track 37 of 44).bin" BINARY
  TRACK 37 AUDIO
    INDEX 01 00:00:00
FILE "Allie's Playhouse (1993)(Opcode Interactive)[PC-Mac] (Track 38 of 44).bin" BINARY
  TRACK 38 AUDIO
    INDEX 01 00:00:00
FILE "Allie's Playhouse (1993)(Opcode Interactive)[PC-Mac] (Track 39 of 44).bin" BINARY
  TRACK 39 AUDIO
    INDEX 01 00:00:00
FILE "Allie's Playhouse (1993)(Opcode Interactive)[PC-Mac] (Track 40 of 44).bin" BINARY
  TRACK 40 AUDIO
    INDEX 01 00:00:00
FILE "Allie's Playhouse (1993)(Opcode Interactive)[PC-Mac] (Track 41 of 44).bin" BINARY
  TRACK 41 AUDIO
    INDEX 01 00:00:00
FILE "Allie's Playhouse (1993)(Opcode Interactive)[PC-Mac] (Track 42 of 44).bin" BINARY
  TRACK 42 AUDIO
    INDEX 01 00:00:00
FILE "Allie's Playhouse (1993)(Opcode Interactive)[PC-Mac] (Track 43 of 44).bin" BINARY
  TRACK 43 AUDIO
    INDEX 01 00:00:00
FILE "Allie's Playhouse (1993)(Opcode Interactive)[PC-Mac] (Track 44 of 44).bin" BINARY
  TRACK 44 AUDIO
    INDEX 01 00:00:00
